<?xml version="1.0" encoding="UTF-8" ?>
<!DOCTYPE svg PUBLIC "-//W3C//DTD SVG 1.1//EN" "http://www.w3.org/Graphics/SVG/1.1/DTD/svg11.dtd">
<svg width="500pt" height="500pt" viewBox="0 0 500 500" version="1.1" xmlns="http://www.w3.org/2000/svg">
<g id="#f97a2fff">
<path fill="#f97a2f" opacity="1.00" d=" M 334.83 21.73 C 335.88 21.41 336.92 21.08 337.96 20.73 C 340.65 20.44 343.37 20.50 346.07 20.67 C 347.75 21.35 349.42 22.04 351.12 22.66 C 354.11 24.69 356.62 27.30 359.16 29.85 C 383.59 54.73 408.29 79.36 432.86 104.11 C 437.74 109.33 443.31 113.94 447.34 119.91 C 450.12 125.61 450.13 132.36 447.34 138.07 C 445.58 140.29 443.81 142.55 441.55 144.28 C 431.01 151.60 420.05 158.31 409.29 165.30 C 395.18 174.19 381.23 183.33 367.02 192.06 C 359.84 196.33 353.18 201.74 345.14 204.35 C 340.30 205.11 335.58 203.69 331.42 201.29 C 328.98 199.19 326.38 197.04 325.22 193.94 C 324.73 192.63 324.21 191.33 323.65 190.06 C 323.00 182.38 323.52 174.67 323.37 166.98 C 323.32 166.05 323.00 165.22 322.42 164.47 C 299.62 164.98 276.80 164.52 253.99 164.69 C 246.92 164.76 239.62 164.11 232.84 166.58 C 230.71 168.23 228.51 170.11 227.66 172.77 C 226.89 176.88 227.00 181.24 228.66 185.12 C 230.95 188.24 233.58 191.23 236.90 193.29 C 237.39 193.55 238.36 194.07 238.85 194.33 C 239.92 194.78 240.99 195.24 242.07 195.71 C 244.64 197.01 247.42 197.83 250.12 198.81 C 252.74 199.93 255.44 200.81 258.11 201.82 C 260.77 202.85 263.50 203.69 266.16 204.73 C 267.40 205.22 268.63 205.72 269.87 206.23 C 271.29 206.71 272.69 207.24 274.10 207.76 C 275.11 208.11 276.12 208.44 277.15 208.75 C 281.08 210.22 284.99 211.76 288.96 213.15 C 289.94 213.48 290.91 213.82 291.89 214.17 C 292.89 214.49 293.88 214.83 294.88 215.18 C 299.93 217.15 305.01 219.05 310.17 220.70 C 311.42 221.19 312.69 221.68 313.95 222.16 C 317.45 223.04 320.75 224.53 324.13 225.78 C 325.38 226.25 326.64 226.72 327.90 227.21 C 334.03 229.23 340.06 231.53 346.11 233.77 C 347.10 234.10 348.10 234.42 349.10 234.72 C 350.36 235.21 351.64 235.69 352.90 236.18 C 355.57 237.13 358.23 238.12 360.86 239.20 C 361.87 239.52 362.88 239.85 363.89 240.20 C 365.30 240.73 366.70 241.27 368.13 241.76 C 369.37 242.26 370.62 242.75 371.87 243.26 C 378.96 246.03 385.72 249.69 391.86 254.21 C 404.02 263.43 414.08 275.49 420.69 289.26 C 421.50 290.82 422.23 292.43 422.83 294.09 C 424.68 298.22 425.96 302.56 427.25 306.89 C 428.01 309.57 428.50 312.31 428.84 315.07 C 429.51 317.68 429.59 320.39 429.87 323.06 C 431.19 332.02 430.34 341.12 429.16 350.05 C 428.72 352.03 428.44 354.04 427.92 356.01 C 427.43 358.70 426.79 361.37 425.75 363.92 C 425.63 364.46 425.39 365.54 425.28 366.09 C 424.52 367.73 423.84 369.40 423.24 371.11 C 422.44 373.06 421.62 375.00 420.71 376.91 C 410.12 399.31 390.80 417.36 367.90 426.74 C 360.00 430.35 351.56 432.56 343.07 434.25 C 341.36 434.48 339.64 434.64 337.93 434.85 C 331.36 435.89 324.70 436.52 318.04 436.45 C 280.58 436.53 243.12 436.43 205.66 436.56 C 205.53 445.76 206.02 454.97 205.36 464.15 C 203.67 468.53 201.13 472.72 197.12 475.35 C 194.56 476.66 191.82 477.53 189.04 478.26 C 185.45 478.29 181.76 477.92 178.41 476.55 C 174.70 474.83 171.94 471.70 169.09 468.87 C 136.03 435.62 103.15 402.21 70.02 369.01 C 66.56 365.77 63.80 361.75 62.69 357.09 C 62.50 354.40 62.33 351.67 63.03 349.04 C 64.76 341.33 71.63 335.48 79.39 334.48 C 86.59 333.79 93.83 334.45 101.05 334.07 C 146.36 334.32 191.68 334.17 237.00 334.20 C 239.31 334.22 241.63 334.12 243.95 333.99 C 245.97 334.21 248.01 334.20 250.04 334.03 C 261.02 334.07 271.99 334.22 282.99 334.20 C 288.86 333.88 295.67 333.71 299.96 329.04 C 301.59 327.53 301.72 325.08 301.13 323.07 C 299.65 319.83 296.11 318.31 292.98 317.11 C 291.67 316.68 290.37 316.21 289.11 315.70 C 287.68 315.18 286.26 314.66 284.84 314.15 C 281.22 312.74 277.55 311.45 273.85 310.28 C 272.59 309.79 271.34 309.32 270.10 308.83 C 266.59 307.96 263.28 306.47 259.88 305.26 C 257.87 304.60 255.88 303.89 253.89 303.20 C 249.15 301.76 244.56 299.88 239.91 298.19 C 238.92 297.84 237.93 297.52 236.93 297.22 C 235.65 296.75 234.37 296.27 233.11 295.77 C 232.11 295.45 231.13 295.12 230.15 294.78 C 226.70 293.65 223.36 292.24 219.90 291.19 C 218.61 290.74 217.34 290.28 216.10 289.75 C 215.09 289.44 214.08 289.14 213.08 288.83 C 212.09 288.49 211.10 288.14 210.12 287.78 C 202.11 284.72 193.98 282.01 185.87 279.22 C 183.67 278.28 181.39 277.54 179.13 276.79 C 178.12 276.47 177.12 276.15 176.13 275.81 C 174.15 275.11 172.17 274.43 170.18 273.75 C 165.63 272.26 161.28 270.24 156.90 268.31 C 134.81 257.28 117.37 237.72 107.73 215.09 C 106.33 211.79 105.08 208.42 104.11 204.96 C 98.24 186.60 97.63 166.71 101.83 147.94 C 102.20 146.61 102.52 145.27 102.85 143.93 C 103.21 142.61 103.53 141.29 103.84 139.96 C 104.17 138.96 104.49 137.95 104.80 136.95 C 106.15 132.81 108.02 128.89 109.69 124.89 C 109.95 124.39 110.47 123.40 110.74 122.91 C 120.76 102.56 137.82 86.08 157.94 75.79 C 162.27 73.80 166.50 71.54 171.11 70.23 C 172.36 69.70 173.63 69.22 174.90 68.73 C 175.44 68.60 176.52 68.35 177.06 68.23 C 185.76 65.30 194.87 63.89 203.94 62.82 C 207.30 62.55 210.67 62.50 214.04 62.45 C 250.45 62.35 286.86 62.50 323.26 62.31 C 323.66 52.57 322.41 42.66 324.09 33.03 C 325.79 27.87 329.89 23.84 334.83 21.73 M 358.83 82.15 C 358.54 83.43 358.23 84.70 357.91 85.97 C 355.74 90.62 352.06 94.50 347.20 96.33 C 346.14 96.61 345.09 96.92 344.06 97.26 C 341.39 97.47 338.71 97.51 336.03 97.51 C 297.37 97.53 258.72 97.53 220.06 97.56 C 216.35 97.58 212.65 97.52 208.96 97.84 C 200.83 98.96 192.66 100.07 184.88 102.79 C 183.61 103.26 182.35 103.72 181.11 104.21 C 179.01 104.99 176.96 105.90 174.90 106.77 C 159.09 114.93 146.04 128.53 139.19 145.02 C 138.87 146.04 138.55 147.06 138.24 148.09 C 137.30 150.68 136.64 153.35 135.85 155.99 C 133.97 166.60 133.61 177.49 135.80 188.09 C 136.61 190.69 137.25 193.35 138.23 195.90 C 138.56 196.91 138.90 197.92 139.24 198.93 C 140.52 202.44 142.35 205.71 144.25 208.92 C 150.77 220.31 160.43 229.84 171.88 236.27 C 173.87 237.25 175.84 238.28 177.84 239.26 C 180.28 240.05 182.69 240.92 185.08 241.87 C 186.09 242.19 187.10 242.50 188.12 242.79 C 192.34 244.36 196.71 245.52 200.87 247.25 C 201.88 247.54 202.90 247.84 203.91 248.14 C 204.91 248.48 205.90 248.84 206.89 249.21 C 211.29 250.79 215.73 252.24 220.13 253.82 C 221.10 254.15 222.08 254.47 223.07 254.78 C 224.35 255.26 225.63 255.75 226.90 256.26 C 227.91 256.56 228.91 256.87 229.92 257.20 C 233.54 258.62 237.26 259.79 240.89 261.20 C 241.89 261.50 242.88 261.82 243.88 262.16 C 250.99 264.60 257.99 267.34 265.12 269.73 C 270.84 271.62 276.40 273.91 282.13 275.78 C 287.08 277.51 292.04 279.27 296.89 281.29 C 297.43 281.40 298.51 281.62 299.05 281.74 C 300.33 282.24 301.62 282.74 302.90 283.28 C 307.43 284.72 311.81 286.58 316.02 288.78 C 322.27 292.43 327.58 297.71 331.29 303.92 C 333.65 307.96 335.27 312.35 336.29 316.91 C 336.74 322.54 337.24 328.35 335.89 333.91 C 335.27 337.50 333.68 340.79 332.38 344.16 C 331.83 345.08 331.28 346.00 330.72 346.91 C 330.14 348.39 329.21 349.67 328.18 350.87 C 323.94 352.70 321.88 357.46 317.49 359.08 C 312.40 361.06 307.83 364.31 302.46 365.56 C 295.39 367.07 288.14 367.67 280.93 367.42 C 229.61 367.35 178.30 367.39 126.99 367.39 C 124.81 367.70 121.42 366.60 120.78 369.55 C 128.78 377.74 137.21 385.57 145.09 393.90 C 152.68 401.77 160.77 409.18 168.01 417.36 C 168.79 417.57 169.58 417.78 170.36 418.00 C 170.46 417.22 170.65 415.67 170.74 414.89 C 173.26 406.32 182.01 400.16 190.97 401.28 C 219.66 401.31 248.34 401.19 277.03 401.27 C 278.66 401.09 280.69 401.76 282.00 400.46 C 282.45 400.65 283.35 401.04 283.80 401.23 C 292.88 401.26 301.97 401.32 311.05 401.15 C 317.66 400.26 324.41 401.07 331.04 400.15 C 333.02 399.66 335.06 399.44 337.09 399.24 C 343.60 397.80 349.97 395.86 356.13 393.30 C 368.45 387.26 379.50 378.17 386.33 366.13 C 386.56 365.62 387.03 364.61 387.26 364.11 C 389.80 359.33 391.67 354.26 393.22 349.08 C 393.41 347.70 393.60 346.31 393.83 344.94 C 395.39 337.40 394.73 329.57 394.20 321.94 C 393.73 320.30 393.43 318.63 393.22 316.95 C 392.75 315.33 392.33 313.72 391.80 312.13 C 390.69 308.49 388.97 305.10 387.33 301.69 C 381.17 290.65 371.66 281.21 359.90 276.33 C 358.66 275.77 357.40 275.24 356.15 274.74 C 353.45 273.88 350.82 272.86 348.19 271.83 C 347.16 271.50 346.14 271.16 345.13 270.81 C 343.70 270.28 342.28 269.72 340.86 269.20 C 339.86 268.86 338.87 268.53 337.89 268.22 C 336.89 267.86 335.90 267.51 334.90 267.19 C 331.99 266.02 328.98 265.09 326.10 263.82 C 325.08 263.50 324.06 263.18 323.06 262.85 C 322.08 262.50 321.11 262.15 320.14 261.78 C 318.72 261.25 317.30 260.72 315.86 260.24 C 311.19 258.58 306.56 256.81 301.86 255.25 C 299.87 254.57 297.88 253.91 295.89 253.25 C 293.26 252.12 290.55 251.22 287.87 250.25 C 286.59 249.78 285.31 249.31 284.05 248.80 C 283.06 248.49 282.08 248.16 281.11 247.82 C 277.51 246.32 273.66 245.50 270.16 243.75 C 268.74 243.24 267.32 242.72 265.89 242.24 C 264.63 241.75 263.37 241.27 262.11 240.77 C 257.98 239.37 253.90 237.82 249.83 236.27 C 247.86 235.55 245.88 234.88 243.88 234.26 C 242.62 233.75 241.35 233.27 240.09 232.80 C 234.30 230.76 228.60 228.46 222.84 226.32 C 212.13 220.97 202.91 212.48 197.19 201.92 C 195.94 199.68 195.02 197.30 194.16 194.90 C 193.77 193.59 193.44 192.27 193.10 190.95 C 192.56 189.00 192.26 186.99 191.80 185.03 C 191.21 178.36 191.19 171.52 193.16 165.06 C 193.46 163.73 193.77 162.40 194.18 161.10 C 195.84 156.73 198.15 152.66 200.75 148.79 C 205.96 141.42 213.63 136.21 221.88 132.75 C 223.90 132.10 225.93 131.48 227.93 130.77 C 229.30 130.54 230.67 130.31 232.04 130.08 C 235.30 129.35 238.66 129.40 241.97 129.37 C 274.30 129.32 306.63 129.40 338.96 129.37 C 341.31 129.35 343.70 129.40 345.96 130.14 C 346.52 130.27 347.64 130.53 348.20 130.66 C 353.74 133.59 358.02 138.75 359.24 144.96 C 359.41 147.94 359.46 150.93 359.51 153.91 C 360.90 153.51 362.29 153.03 363.50 152.19 C 376.68 143.64 389.94 135.21 403.23 126.83 C 404.29 125.40 402.23 124.46 401.59 123.42 C 389.89 111.81 378.34 100.05 366.69 88.39 C 364.20 86.18 362.66 82.06 358.83 82.15 Z" />
</g>
<g id="#d67136f6">
<path fill="#d67136" opacity="0.96" d=" M 317.49 359.08 C 321.88 357.46 323.94 352.70 328.18 350.87 C 319.19 363.58 303.00 368.96 287.99 369.41 C 232.26 369.58 176.51 369.25 120.78 369.55 C 121.42 366.60 124.81 367.70 126.99 367.39 C 178.30 367.39 229.61 367.35 280.93 367.42 C 288.14 367.67 295.39 367.07 302.46 365.56 C 307.83 364.31 312.40 361.06 317.49 359.08 Z" />
</g>
</svg>
